<?xml version="1.0" encoding="UTF-8"?>
<svg width="32px" height="32px" viewBox="0 0 32 32" version="1.1" xmlns="http://www.w3.org/2000/svg" xmlns:xlink="http://www.w3.org/1999/xlink">
    <title>discord_hover</title>
    <g id="页面-1" stroke="none" stroke-width="1" fill="none" fill-rule="evenodd">
        <g id="导航栏" transform="translate(-1304.000000, -4739.000000)">
            <g id="底部导航" transform="translate(0.000000, 4346.000000)">
                <g id="编组-26" transform="translate(1248.000000, 393.000000)">
                    <g id="discord_hover" transform="translate(56.000000, 0.000000)">
                        <rect id="矩形" x="0" y="0" width="32" height="32"></rect>
                        <g id="discord" transform="translate(3.000000, 2.000000)" fill="#51E0CF" fill-rule="nonzero">
                            <path d="M25,29 L18.4375,22.6956522 L19.225,25.2173913 L3.12500001,25.2173913 C1.39911016,25.2173913 0,23.806115 0,22.0652174 L0,3.15217389 C0,1.41127632 1.39911017,0 3.12500001,0 L21.875,0 C23.6008898,0 25,1.41127632 25,3.15217389 L25,29 M12.5,7.31304346 C9.15,7.31304346 6.80000001,8.76304347 6.80000001,8.76304347 C8.08750002,7.60304348 10.3375,6.93478259 10.3375,6.93478259 L10.125,6.72043478 C8.01249999,6.75826086 6.09999999,8.23347825 6.10000002,8.23347825 C3.95000001,12.76 4.08750003,16.6686956 4.0875,16.6686956 C5.83749999,18.9508696 8.4375,18.7869565 8.4375,18.7869565 L9.32500002,17.6521739 C7.76250003,17.3117391 6.77500002,15.9121739 6.77500002,15.9121739 C6.77500002,15.9121739 9.12500001,17.5260869 12.5,17.5260869 C15.875,17.5260869 18.225,15.9121739 18.225,15.9121739 C18.225,15.9121739 17.2375,17.3117391 15.675,17.6521739 L16.5625,18.7869565 C16.5625,18.7869565 19.1625,18.9508696 20.9125,16.6686956 C20.9125,16.6686956 21.05,12.76 18.9,8.23347825 C18.9,8.23347825 16.9875,6.75826086 14.875,6.72043478 L14.6625,6.93478259 C14.6625,6.93478259 16.9125,7.60304345 18.2,8.76304347 C18.2,8.76304347 15.85,7.31304346 12.5,7.31304346 M9.91250001,12.0917391 C10.725,12.0917391 11.3875,12.8104348 11.375,13.6930435 C11.375,14.5630435 10.725,15.2943478 9.91250001,15.2943478 C9.1125,15.2943478 8.46250002,14.5630435 8.46250002,13.6930435 C8.46250002,12.8104348 9.10000002,12.0917391 9.91250001,12.0917391 M15.125,12.0917391 C15.9375,12.0917391 16.5875,12.8104348 16.5875,13.6930435 C16.5875,14.5630435 15.9375,15.2943478 15.125,15.2943478 C14.325,15.2943478 13.675,14.5630435 13.675,13.6930435 C13.675,12.8104348 14.3125,12.0917391 15.125,12.0917391 Z" id="形状"></path>
                        </g>
                    </g>
                </g>
            </g>
        </g>
    </g>
</svg>