<?xml version="1.0" encoding="UTF-8"?>
<svg width="32px" height="32px" viewBox="0 0 32 32" version="1.1" xmlns="http://www.w3.org/2000/svg" xmlns:xlink="http://www.w3.org/1999/xlink">
    <title>email_hover</title>
    <g id="页面-1" stroke="none" stroke-width="1" fill="none" fill-rule="evenodd">
        <g id="导航栏" transform="translate(-1528.000000, -4739.000000)">
            <g id="底部导航" transform="translate(0.000000, 4346.000000)">
                <g id="编组-26" transform="translate(1248.000000, 393.000000)">
                    <g id="email_hover" transform="translate(280.000000, 0.000000)">
                        <rect id="矩形" x="0" y="0" width="32" height="32"></rect>
                        <g id="邮箱" transform="translate(4.000000, 7.000000)" fill="#51E0CF" fill-rule="nonzero">
                            <path d="M23.270034,3.65495773 L13.7675392,13.1574524 C12.7949662,14.1300255 11.2050338,14.1300255 10.2324607,13.1574524 L0.729966014,3.65495773 C0.319957093,3.24494881 0.0824776636,2.7249473 0.0200413024,2.19003212 C0.00747358809,2.29255112 0,2.39503658 0,2.50003559 L0,16.5000398 C0,17.8750141 1.12492722,19.0000754 2.50006913,19.0000754 L21.5000649,19.0000754 C22.8749387,19.0000754 24,17.8750141 24,16.5000398 L24,2.50003559 C24,2.39503658 23.9925263,2.29255109 23.9799587,2.19003212 C23.9150423,2.72756139 23.6774288,3.24494881 23.270034,3.65495773 Z M13.7675392,11.3375142 L23.7300456,1.37497433 C23.3174226,0.560017073 22.4700239,0 21.5000649,0 L2.50006909,0 C1.53011011,0 0.682443293,0.560017105 0.270088413,1.37497433 L10.2324607,11.3375142 C11.2048997,12.3100537 12.7949662,12.3100537 13.7675392,11.3375142 L13.7675392,11.3375142 L13.7675392,11.3375142 Z" id="形状"></path>
                        </g>
                    </g>
                </g>
            </g>
        </g>
    </g>
</svg>