<?xml version="1.0" encoding="UTF-8"?>
<svg width="32px" height="32px" viewBox="0 0 32 32" version="1.1" xmlns="http://www.w3.org/2000/svg" xmlns:xlink="http://www.w3.org/1999/xlink">
    <title>github_hover</title>
    <g id="页面-1" stroke="none" stroke-width="1" fill="none" fill-rule="evenodd">
        <g id="导航栏" transform="translate(-1472.000000, -4739.000000)">
            <g id="底部导航" transform="translate(0.000000, 4346.000000)">
                <g id="编组-26" transform="translate(1248.000000, 393.000000)">
                    <g id="github_hover" transform="translate(224.000000, 0.000000)">
                        <rect id="矩形" x="0" y="0" width="32" height="32"></rect>
                        <g id="github" transform="translate(3.000000, 3.000000)" fill="#51E0CF" fill-rule="nonzero">
                            <path d="M26,13.3251677 C26,16.2293342 25.1732,18.841004 23.5196,21.1601772 C21.8673,23.4793505 19.7314,25.083532 17.1132,25.9740217 C16.809,26.032521 16.5854,25.9922215 16.445,25.8531231 C16.3049666,25.716909 16.2281566,25.5284205 16.2331,25.3331291 L16.2331,21.6710713 C16.2331,20.5491843 15.9393,19.7275938 15.353,19.2075998 C15.9387234,19.1488195 16.5189784,19.0445052 17.0885,18.8956034 C17.6007,18.756505 18.1311,18.5316076 18.6784,18.2196112 C19.2045821,17.9251916 19.6700081,17.5334442 20.0499,17.0652245 C20.4165,16.6076298 20.7155,16.0005368 20.9469,15.2426456 C21.1783,14.4847543 21.294,13.6150643 21.294,12.6322757 C21.294,11.2321918 20.8481,10.0401056 19.9576,9.05731692 C20.3736,8.00432908 20.3294,6.82524268 19.8211,5.51745779 C19.5052,5.41345898 19.0489,5.47845825 18.4509,5.70855557 C17.9084659,5.91231723 17.3869235,6.16786135 16.8935,6.47164679 L16.25,6.88764198 C15.1930642,6.58631241 14.0990479,6.43490231 13,6.43784716 C11.9008907,6.43532506 10.8068733,6.58717293 9.75000001,6.88894196 C9.51488452,6.72611145 9.27515287,6.57004924 9.0311,6.42094737 C8.73210001,6.23504952 8.26020002,6.01275208 7.61669999,5.75275508 C6.97449999,5.49275808 6.48829998,5.41475897 6.16069999,5.51875778 C5.66539999,6.8252427 5.6251,8.00432908 6.04369999,9.05731692 C5.15189998,10.0401056 4.70469999,11.2321918 4.70469999,12.6322757 C4.70469999,13.6150643 4.82169999,14.4821543 5.05309999,15.2348456 C5.28449999,15.986237 5.58089999,16.59333 5.941,17.0561246 C6.31440585,17.5292282 6.77735216,17.9241416 7.30340001,18.2183112 C7.85070002,18.5303076 8.38240001,18.756505 8.8946,18.8943034 C9.40810001,19.0347018 9.98659998,19.1387006 10.6301,19.2075998 C10.179,19.623595 9.90210001,20.2202881 9.80069999,20.9950791 C9.55832498,21.1124994 9.3024897,21.1998142 9.0389,21.2550761 C8.72124825,21.3174186 8.3979814,21.3466081 8.0743,21.3421751 C7.70119999,21.3421751 7.33330001,21.2173766 6.9654,20.9690794 C6.59879999,20.7194823 6.28550001,20.3580865 6.02550001,19.884892 C5.82239574,19.5270229 5.54218825,19.2188426 5.20520001,18.9827024 C4.87240002,18.751305 4.59290001,18.6122066 4.3667,18.5667072 L4.02869999,18.5147078 C3.7921,18.5147078 3.62829999,18.5407075 3.53729999,18.5927069 C3.44629999,18.6447063 3.42029999,18.7097055 3.45280001,18.7916046 C3.49103504,18.8797991 3.54230763,18.9617467 3.60490001,19.0347018 C3.6698402,19.1127576 3.74405432,19.1826054 3.82589999,19.2426994 L3.94289999,19.3284984 C4.1925,19.445497 4.43689999,19.6651945 4.68000001,19.9888908 C4.9231,20.312587 5.1012,20.6076836 5.213,20.8728806 L5.38200001,21.271976 C5.52890001,21.7113709 5.77720002,22.0675668 6.12819999,22.3392636 C6.47789999,22.6122605 6.85619999,22.7851585 7.2618,22.8592576 C7.6674,22.9346568 8.05999999,22.9762563 8.43830001,22.9814562 C8.81530001,22.9866561 9.12990002,22.9671564 9.37820001,22.9203569 L9.7669,22.8514577 C9.7669,23.2908527 9.7695,23.8056467 9.77600002,24.3958399 L9.78380001,25.3318291 C9.78380001,25.5398267 9.71100002,25.7140247 9.5628,25.8518231 C9.4172,25.9922215 9.19099999,26.032521 8.8868,25.9740217 C6.2686,25.0835319 4.13270001,23.4780505 2.4804,21.1601772 C0.826799991,18.841004 0,16.2293342 0,13.3251677 C0,10.9071956 0.581100002,8.67902132 1.7433,6.63674486 C2.86842766,4.63366999 4.50027461,2.96149448 6.4753,1.78780084 C8.44414486,0.602620671 10.7020073,-0.0159338309 13,0.000321482899 C15.2984334,-0.0161735833 17.5567777,0.602389671 19.526,1.78780084 C21.5005482,2.96167366 23.1319317,4.63383367 24.2567,6.63674486 C25.4189,8.67772131 26,10.9084956 26,13.3251677 Z" id="路径"></path>
                        </g>
                    </g>
                </g>
            </g>
        </g>
    </g>
</svg>