<?xml version="1.0" encoding="UTF-8"?>
<svg width="32px" height="32px" viewBox="0 0 32 32" version="1.1" xmlns="http://www.w3.org/2000/svg" xmlns:xlink="http://www.w3.org/1999/xlink">
    <title>medium_hover</title>
    <g id="页面-1" stroke="none" stroke-width="1" fill="none" fill-rule="evenodd">
        <g id="导航栏" transform="translate(-1416.000000, -4739.000000)">
            <g id="底部导航" transform="translate(0.000000, 4346.000000)">
                <g id="编组-26" transform="translate(1248.000000, 393.000000)">
                    <g id="medium_hover" transform="translate(168.000000, 0.000000)">
                        <rect id="矩形" x="0" y="0" width="32" height="32"></rect>
                        <g id="medium" transform="translate(3.000000, 3.000000)" fill="#51E0CF" fill-rule="nonzero">
                            <path d="M0,0 L0,26 L26,26 L26,0 L0,0 Z M21.5995,6.15983334 L20.20525,7.49666666 C20.0847054,7.58841221 20.0250316,7.73947447 20.0503333,7.88883334 L20.0503333,17.7114167 C20.0254584,17.8604187 20.0850874,18.0109506 20.20525,18.1025 L21.567,19.4393333 L21.567,19.7329167 L14.7181667,19.7329167 L14.7181667,19.4404167 L16.1286667,18.07 C16.2673333,17.9313333 16.2673333,17.89125 16.2673333,17.68 L16.2673333,9.73916666 L12.3456667,19.7004167 L11.8148333,19.7004167 L7.2475,9.73916666 L7.2475,16.41575 C7.2094269,16.6962833 7.3025129,16.9787374 7.49991666,17.1816667 L9.33508334,19.4068333 L9.33508334,19.7004167 L4.13291666,19.7004167 L4.13291666,19.4079167 L5.96916666,17.1816667 C6.16513529,16.9784006 6.25280436,16.6940794 6.20533334,16.41575 L6.20533334,8.69591666 C6.22726717,8.48142998 6.14557252,8.26934586 5.98541666,8.125 L4.35391666,6.15983334 L4.35391666,5.86733334 L9.41741666,5.86733334 L13.3315,14.4505833 L16.7721667,5.86625 L21.5995,5.86625 L21.5995,6.15983334 Z" id="形状"></path>
                        </g>
                    </g>
                </g>
            </g>
        </g>
    </g>
</svg>