<?xml version="1.0" encoding="UTF-8"?>
<svg width="32px" height="32px" viewBox="0 0 32 32" version="1.1" xmlns="http://www.w3.org/2000/svg" xmlns:xlink="http://www.w3.org/1999/xlink">
    <title>twitter_hover</title>
    <g id="页面-1" stroke="none" stroke-width="1" fill="none" fill-rule="evenodd">
        <g id="导航栏" transform="translate(-1248.000000, -4739.000000)">
            <g id="底部导航" transform="translate(0.000000, 4346.000000)">
                <g id="twitter_hover" transform="translate(1248.000000, 393.000000)">
                    <rect id="矩形" x="0" y="0" width="32" height="32"></rect>
                    <g id="编组" transform="translate(4.000000, 4.000000)" fill="#51E0CF">
                        <path d="M0.0276118976,0 L1.75148164,2.44814452 L9.39997931,13.3082381 L10.3091698,14.5980072 L16.454701,23.3238792 L16.9314391,24 L24,24 L22.2760898,21.5518535 L14.2344555,10.1349317 L13.3252246,8.84374117 L7.57289073,0.676829619 L7.09613243,0 L0.0276118976,0 Z M11.3869571,13.3721679 L10.4777666,12.0816881 L3.06912293,1.56250681 L6.25597676,1.56250681 L12.2474373,10.0695805 L13.156648,11.3600998 L20.9584688,22.4374912 L17.7715947,22.4374912 L11.3869571,13.3721679 Z" id="Fill-1"></path>
                        <polygon id="Fill-2" points="9.39998537 13.3082401 0 24 2.03930441 24 10.3091758 14.5980091 11.3869429 13.3721698 10.4777727 12.08169"></polygon>
                        <polygon id="Fill-3" points="21.1096382 0 19.3639488 1.97514761 13.3252125 8.84374117 12.2474454 10.0695805 13.1566561 11.3600998 14.2344434 10.1349317 23.1489224 0"></polygon>
                    </g>
                </g>
            </g>
        </g>
    </g>
</svg>